<svg width="142" height="73" viewBox="0 0 142 73" fill="none" xmlns="http://www.w3.org/2000/svg">
<path d="M65.2924 19.5478H78.3741V24.6578H65.2924V19.5478ZM65.7582 31.2278H80.5479V36.5H59.5084V8.11111H80.0433V13.3833H65.7582V31.2278Z" fill="white"/>
<path d="M85.5516 36.5V8.11111H97.8958C100.846 8.11111 103.447 8.70593 105.698 9.89556C107.95 11.0581 109.709 12.6939 110.978 14.8028C112.246 16.9117 112.88 19.4126 112.88 22.3056C112.88 25.1715 112.246 27.6724 110.978 29.8083C109.709 31.9172 107.95 33.5665 105.698 34.7561C103.447 35.9187 100.846 36.5 97.8958 36.5H85.5516ZM91.8401 31.1061H97.5852C99.3967 31.1061 100.962 30.7546 102.282 30.0517C103.628 29.3217 104.663 28.2943 105.388 26.9694C106.138 25.6446 106.513 24.09 106.513 22.3056C106.513 20.4941 106.138 18.9394 105.388 17.6417C104.663 16.3169 103.628 15.303 102.282 14.6C100.962 13.87 99.3967 13.505 97.5852 13.505H91.8401V31.1061Z" fill="white"/>
<path d="M129.695 36.9867C125.839 36.9867 122.824 35.8646 120.65 33.6206C118.476 31.3765 117.389 28.1726 117.389 24.0089V8.11111H123.678V23.7656C123.678 26.4693 124.208 28.4159 125.269 29.6056C126.33 30.7952 127.818 31.39 129.733 31.39C131.648 31.39 133.136 30.7952 134.198 29.6056C135.259 28.4159 135.789 26.4693 135.789 23.7656V8.11111H142V24.0089C142 28.1726 140.913 31.3765 138.739 33.6206C136.565 35.8646 133.551 36.9867 129.695 36.9867Z" fill="white"/>
<path d="M68.7239 65.2904C66.5811 65.2904 64.6596 64.8281 62.9594 63.9034C61.2824 62.9544 59.9548 61.6647 58.9766 60.0344C57.9984 58.3797 57.5093 56.5061 57.5093 54.4134C57.5093 52.2964 57.9984 50.4227 58.9766 48.7924C59.9548 47.1377 61.2824 45.8481 62.9594 44.9234C64.6596 43.9744 66.5811 43.4999 68.7239 43.4999C70.6105 43.4999 72.2641 43.8041 73.6849 44.4124C75.1289 44.9964 76.3633 45.9697 77.3881 47.3324L73.8246 50.7269C73.1492 49.8752 72.4039 49.2426 71.5887 48.8289C70.7735 48.4152 69.8884 48.2084 68.9335 48.2084C67.7923 48.2084 66.7791 48.4761 65.894 49.0114C65.009 49.5224 64.3103 50.2402 63.7979 51.1649C63.3087 52.0896 63.0642 53.1724 63.0642 54.4134C63.0642 55.6301 63.3087 56.7007 63.7979 57.6254C64.3103 58.5501 65.009 59.2801 65.894 59.8154C66.7791 60.3264 67.7923 60.5819 68.9335 60.5819C69.8884 60.5819 70.7735 60.3751 71.5887 59.9614C72.4039 59.5477 73.1492 58.9151 73.8246 58.0634L77.3881 61.4579C76.3633 62.7962 75.1289 63.7696 73.6849 64.3779C72.2641 64.9862 70.6105 65.2904 68.7239 65.2904Z" fill="#4B5BF5"/>
<path d="M77.398 64.8889L86.4116 43.9014H91.8616L100.91 64.8889H95.4601L88.2283 46.6754H90.0799L82.7432 64.8889H77.398ZM82.324 60.7279L83.7564 56.5669H93.6783L95.1107 60.7279H82.324Z" fill="#4B5BF5"/>
<path d="M119.052 58.5014C119.052 59.8154 118.691 60.9834 117.969 62.0054C117.27 63.0274 116.245 63.8304 114.894 64.4144C113.567 64.9984 111.925 65.2904 109.968 65.2904C108.361 65.2904 106.777 65.0836 105.217 64.6699C103.68 64.2562 102.434 63.7087 101.479 63.0274L103.4 58.7569C104.309 59.3896 105.368 59.8884 106.579 60.2534C107.791 60.6184 109.025 60.8009 110.283 60.8009C111.517 60.8009 112.379 60.6184 112.868 60.2534C113.357 59.8884 113.602 59.4626 113.602 58.9759C113.602 58.4892 113.38 58.0999 112.938 57.8079C112.519 57.5159 111.96 57.2847 111.261 57.1144C110.585 56.9197 109.829 56.7372 108.99 56.5669C108.175 56.3966 107.348 56.1776 106.51 55.9099C105.694 55.6422 104.937 55.2894 104.239 54.8514C103.563 54.3891 103.004 53.7929 102.562 53.0629C102.143 52.3086 101.933 51.3717 101.933 50.2524C101.933 48.9384 102.294 47.7826 103.016 46.7849C103.761 45.7629 104.809 44.9599 106.16 44.3759C107.511 43.7919 109.118 43.4999 110.981 43.4999C112.239 43.4999 113.52 43.6459 114.824 43.9379C116.129 44.2299 117.27 44.6922 118.248 45.3249L116.466 49.5954C115.558 49.0114 114.615 48.5977 113.637 48.3544C112.682 48.1111 111.727 47.9894 110.772 47.9894C109.607 47.9894 108.757 48.1719 108.221 48.5369C107.686 48.9019 107.418 49.3642 107.418 49.9239C107.418 50.4106 107.628 50.7999 108.047 51.0919C108.466 51.3839 109.013 51.6272 109.689 51.8219C110.388 51.9922 111.156 52.1626 111.995 52.3329C112.833 52.5032 113.66 52.7222 114.475 52.9899C115.29 53.2332 116.047 53.5739 116.746 54.0119C117.445 54.4499 118.004 55.0339 118.423 55.7639C118.842 56.4696 119.052 57.3821 119.052 58.5014Z" fill="#4B5BF5"/>
<path d="M122.538 64.8889V43.9014H128.058V51.9314H136.233V43.9014H141.753V64.8889H136.233V56.5669H128.058V64.8889H122.538Z" fill="#4B5BF5"/>
<path d="M35.9069 0V73H5.82274C2.60693 73 9.37865e-08 70.2764 0 66.9167V6.08333C0 2.7236 2.60693 0 5.82274 0H35.9069Z" fill="#4B5BF5"/>
<path d="M40.7592 0C43.975 0 46.5819 2.7236 46.5819 6.08333V66.9167C46.5819 70.2764 43.975 73 40.7592 73V0Z" fill="#4B5BF5"/>
</svg>
